PathFileType	4	(X/Y/Z)	C:\Users\Basilio\Documents\Thesis Gigler\squatting_fais\c3dfiles\054\SJ_pre5\markers_experimental.trc
DataRate	CameraRate	NumFrames	NumMarkers	Units	OrigDataRate	OrigDataStartFrame	OrigNumFrames
200.000000	200.000000	4	61	mm	200.000000	801	1602
Frame#	Time	FHD			LBHD			RBHD			C7			T10			CLAV			LSHO			LUUPA			LMUPA			LDUPA			LLEP			LMEP			LRAD			LUL			LRFIN			RSHO			RUPA1			RMUPA			RDUPA			RLEP			RMEP			RRAD			RUL			RUFIN			LASI			RASI			USACR			LSACR			RSACR			LTHI1			LTHI2			LTHI3			LTHI4			LLFC			LMFC			LTIB1			LTIB2			LTIB3			LTIB4			LLMAL			LMMAL			LHEE			LMT1			LMT2			LMT5			RTHI			RTHI2			RTHI3			RTHI4			RLFC			RMFC			RTIB1			RTIB2			RTIB3			RTIB4			RLMAL			RMMAL			RHEE			RMT1			RMT2			RMT5			
		X1	Y1	Z1	X2	Y2	Z2	X3	Y3	Z3	X4	Y4	Z4	X5	Y5	Z5	X6	Y6	Z6	X7	Y7	Z7	X8	Y8	Z8	X9	Y9	Z9	X10	Y10	Z10	X11	Y11	Z11	X12	Y12	Z12	X13	Y13	Z13	X14	Y14	Z14	X15	Y15	Z15	X16	Y16	Z16	X17	Y17	Z17	X18	Y18	Z18	X19	Y19	Z19	X20	Y20	Z20	X21	Y21	Z21	X22	Y22	Z22	X23	Y23	Z23	X24	Y24	Z24	X25	Y25	Z25	X26	Y26	Z26	X27	Y27	Z27	X28	Y28	Z28	X29	Y29	Z29	X30	Y30	Z30	X31	Y31	Z31	X32	Y32	Z32	X33	Y33	Z33	X34	Y34	Z34	X35	Y35	Z35	X36	Y36	Z36	X37	Y37	Z37	X38	Y38	Z38	X39	Y39	Z39	X40	Y40	Z40	X41	Y41	Z41	X42	Y42	Z42	X43	Y43	Z43	X44	Y44	Z44	X45	Y45	Z45	X46	Y46	Z46	X47	Y47	Z47	X48	Y48	Z48	X49	Y49	Z49	X50	Y50	Z50	X51	Y51	Z51	X52	Y52	Z52	X53	Y53	Z53	X54	Y54	Z54	X55	Y55	Z55	X56	Y56	Z56	X57	Y57	Z57	X58	Y58	Z58	X59	Y59	Z59	X60	Y60	Z60	X61	Y61	Z61	

802	4.005	150.8337707519532	1248.430053710938	-879.0605468750002	-6.946718692779543	1204.032470703125	-962.4652099609377	-34.39079666137696	1199.822631835938	-824.2568359375002	-82.3292694091797	1120.677490234375	-884.1018066406252	-354.0466003417969	926.164245605469	-913.6016235351565	-18.69286727905274	972.2707519531252	-893.3613281250002	-2.009015083312989	1055.171508789063	-1040.98828125	-136.737548828125	1045.214965820313	-1227.037231445313	-133.7516326904297	996.2042236328127	-1240.531127929688	-174.9279937744141	1016.377746582031	-1279.055297851563	-216.8943176269532	968.2651977539065	-1306.053466796875	-286.3038635253907	1008.23876953125	-1265.737548828125	-361.5299987792969	807.1522216796877	-1150.11083984375	-339.6615905761719	746.1644897460939	-1193.76318359375	-317.6427001953126	786.902770996094	-1101.662841796875	-11.09645366668701	1032.539794921875	-731.1314697265626	-181.050277709961	1019.308959960938	-569.8853759765626	-194.8563842773438	972.905212402344	-562.1527709960939	-239.1558074951172	1002.490478515625	-532.8864746093751	-285.1496582031251	978.1047973632815	-520.5493164062501	-331.7122497558594	1025.970092773438	-577.6382446289064	-433.8452453613282	826.696960449219	-699.4017333984376	-374.4563903808594	802.1743164062502	-724.3369140625001	-421.804901123047	771.3314208984377	-644.3573608398439	-323.8908691406251	700.0109252929689	-1038.662109375	-334.7543029785157	717.8896484375001	-774.6320800781252	-429.3793029785157	868.6051025390627	-914.388366699219	-454.8046875000001	849.6013183593752	-943.5982055664065	-458.6273803710939	849.0041503906252	-886.0327148437502	-360.8871154785157	605.8250732421876	-1167.186157226563	-281.0254821777344	578.8523559570314	-1184.119140625	-249.9327392578126	611.0292358398439	-1169.549194335938	-261.4526672363282	522.8170776367189	-1192.750366210938	-161.400131225586	430.9828491210939	-1203.072509765625	-111.7109146118164	406.5215759277345	-1078.174682617188	-183.1061401367188	272.4552612304688	-1181.492309570313	-261.1047363281251	268.6736145019532	-1222.817626953125	-223.1685485839844	245.159408569336	-1211.12158203125	-266.6123046875001	176.1796264648438	-1178.412231445313	-397.7068786621095	92.90258789062501	-1209.165161132813	-341.0988159179688	90.89294433593751	-1126.005249023438	-458.2916564941407	54.60000610351564	-1140.157470703125	-241.5745239257813	51.14989852905275	-1191.645629882813	-250.2645874023438	56.94178771972658	-1240.548706054688	-315.4577331542969	39.27124404907227	-1276.983032226563	-330.6887512207032	564.6174926757814	-644.4846801757814	-265.0676574707032	558.8750610351564	-630.2815551757814	-241.5965270996094	581.3603515625001	-634.0402832031251	-225.0357360839844	484.893280029297	-619.7469482421876	-185.1187286376953	434.0225524902345	-606.5161132812501	-116.8931655883789	424.8426818847657	-726.8261108398439	-173.1875915527344	326.6725158691407	-594.8962402343751	-280.6078796386719	300.4955444335938	-588.9134521484376	-243.275619506836	273.3646545410157	-586.1959838867189	-250.1813964843751	220.9620361328126	-608.3632202148439	-395.4901123046876	94.84263610839845	-607.3408813476564	-334.5576477050782	91.55261230468751	-682.6257934570314	-448.9895935058595	50.77601623535158	-681.1073608398439	-231.8635253906251	50.10327529907228	-612.3566284179689	-248.3315734863282	55.97261047363283	-567.3010864257814	-311.4277038574219	36.83737182617188	-537.0374145507814	
803	4.01	147.7269897460938	1260.117309570313	-878.7005004882815	-9.521977424621584	1214.239990234375	-962.5825805664065	-36.72631835937501	1209.533569335938	-824.4229125976565	-84.13545227050783	1129.817504882813	-884.2708740234377	-353.5587463378907	932.490417480469	-913.4063110351565	-19.01678276062012	982.323181152344	-893.529235839844	-2.919776678085328	1065.72998046875	-1041.170288085938	-137.9102630615235	1054.82763671875	-1226.787719726563	-134.226303100586	1005.843383789063	-1240.414794921875	-175.7050476074219	1025.758544921875	-1278.898193359375	-217.2867889404297	977.3839111328127	-1305.830444335938	-287.0697021484376	1016.534912109375	-1265.355102539063	-360.0729064941407	814.710144042969	-1149.845092773438	-338.4327697753907	753.8367309570314	-1194.013793945313	-315.9625854492188	794.0698852539065	-1101.493286132813	-11.97485828399658	1042.406616210938	-731.3336791992189	-181.7073516845703	1027.7060546875	-570.2058105468751	-194.9313659667969	981.3134765625002	-562.2899780273439	-239.5990295410157	1010.2861328125	-533.2014770507814	-285.4583740234376	985.420104980469	-520.4976196289064	-332.8486633300782	1033.08203125	-577.5438232421876	-433.0836486816407	832.5637817382815	-699.1026611328126	-373.6525268554688	807.9343261718752	-724.0355224609376	-420.6566162109376	777.5142211914065	-643.7822265625001	-322.0714111328126	706.2773437500001	-1038.203125	-333.3433837890626	723.7832031250001	-774.4683837890627	-428.7061462402345	874.486755371094	-914.1317138671877	-454.4936828613282	855.2390136718752	-943.338073730469	-457.7307739257814	854.5798950195315	-886.0155029296877	-358.2343750000001	609.0919799804689	-1166.742065429688	-278.6651611328126	580.9432983398439	-1183.484252929688	-247.3479614257813	612.8715820312501	-1168.970825195313	-259.9964294433594	524.6790161132814	-1191.542358398438	-161.2149353027344	431.5542297363282	-1201.763793945313	-111.5726165771485	406.8035888671876	-1076.870849609375	-182.7966003417969	272.8353271484376	-1180.52685546875	-260.8199157714844	268.9128417968751	-1221.918212890625	-222.1226043701172	245.7151794433594	-1210.54052734375	-266.4087219238282	176.2915954589844	-1177.954345703125	-397.4054565429689	93.26170349121095	-1209.13037109375	-340.8412170410157	90.94570922851564	-1125.916870117188	-458.1563415527345	54.86606979370119	-1140.04296875	-241.4693145751954	51.08617401123048	-1191.650024414063	-250.1921539306641	56.93558502197267	-1240.534057617188	-315.4081115722657	39.33486557006837	-1276.922729492188	-329.1051940917969	567.2743530273439	-644.8662109375001	-263.5442810058594	560.7050781250001	-631.0010986328126	-239.6684570312501	582.7505493164064	-634.6758422851564	-224.3874511718751	486.1150512695314	-620.8631591796876	-184.9389190673828	434.3648986816407	-607.4149169921876	-118.6760330200196	425.1283569335939	-726.8873901367189	-173.1507263183594	326.8241882324219	-595.6351928710939	-280.3796691894532	300.4895324707032	-589.1685180664064	-242.9461517333985	273.5151367187501	-586.6678466796876	-249.5653839111329	221.0485076904297	-608.9194335937501	-395.4263305664064	95.07665252685548	-607.1348876953126	-334.3936157226563	91.67796325683595	-682.5640869140626	-448.918182373047	50.98726272583009	-680.9982910156251	-231.7080078125001	50.089168548584	-612.3335571289064	-248.3252563476563	55.93812179565431	-567.2874755859376	-311.3897094726563	36.86679840087891	-537.0330810546876	
804	4.015	145.0479431152344	1272.177856445313	-878.695983886719	-12.2976303100586	1224.996459960938	-962.2554321289065	-39.52666854858399	1219.712280273438	-824.1883544921877	-86.0983123779297	1139.418579101563	-884.004333496094	-353.2003784179688	939.2830200195315	-913.303161621094	-19.15330886840821	992.6956176757815	-893.6929931640627	-3.902015209197999	1076.240478515625	-1041.177734375	-139.1294708251953	1064.746459960938	-1226.595092773438	-134.7030487060547	1016.150756835938	-1240.384033203125	-176.8280181884766	1035.646728515625	-1278.629638671875	-217.6599731445313	986.7478027343752	-1305.762939453125	-287.8897705078126	1025.376953125	-1265.014526367188	-358.3425292968751	822.2572021484377	-1149.663940429688	-336.3780517578126	762.0028076171876	-1194.079223632813	-314.1194152832032	801.6170654296877	-1101.449340820313	-12.86988067626953	1052.708129882813	-731.3934326171876	-182.484359741211	1036.569091796875	-570.1864624023439	-195.1246032714844	989.880798339844	-562.5641479492189	-240.3111724853516	1018.504760742188	-533.1467285156251	-285.7380065917969	993.058044433594	-520.6292724609376	-333.5650329589844	1040.005004882813	-577.6641235351564	-432.1289367675782	838.6917724609377	-698.8847656250001	-372.6749267578126	814.2102661132815	-723.5690917968751	-419.6499938964845	783.841491699219	-643.3862304687501	-319.9290466308594	713.2699584960939	-1037.823852539063	-332.1670227050782	729.7643432617189	-773.6392822265627	-427.970184326172	880.4891357421877	-913.721130371094	-453.3198852539064	860.7859497070315	-943.0203857421877	-456.7685546875001	859.9263305664065	-885.5850219726565	-355.8468933105469	612.3350219726564	-1166.311645507813	-276.7071533203126	583.4607543945314	-1182.761108398438	-244.991439819336	614.8274536132814	-1168.484985351563	-259.0239257812501	526.8043823242189	-1190.6884765625	-160.7798309326172	432.2134399414064	-1200.521728515625	-111.8171539306641	407.0916137695314	-1075.416259765625	-182.7795715332032	273.1972961425782	-1179.613403320313	-261.0328674316407	268.8981323242188	-1221.4326171875	-222.3435211181641	245.9271545410157	-1209.961791992188	-265.9324340820313	176.6129302978516	-1177.483520507813	-397.2514038085939	93.61021423339845	-1209.151611328125	-340.7379455566407	91.00662994384767	-1125.836059570313	-458.0398254394532	55.29589843750001	-1140.021728515625	-241.3713531494141	51.01327514648439	-1191.684692382813	-250.0380554199219	56.89163970947267	-1240.53857421875	-315.2866821289063	39.41660690307618	-1276.93212890625	-327.6808776855469	569.9179077148439	-645.4591674804689	-262.1631774902344	562.5737304687501	-631.4394531250001	-238.1578369140626	584.5168457031251	-634.8801879882814	-223.9838562011719	487.3842773437501	-621.7065429687501	-185.0122375488282	435.3107299804689	-608.1796875000001	-116.2881393432617	425.9217224121095	-729.1730957031251	-172.8899841308594	327.1852416992188	-596.5061035156251	-280.0888366699219	300.4954528808594	-589.3721923828126	-242.7581634521485	273.8195800781251	-586.9649047851564	-249.2461547851563	221.2663116455079	-609.2460327148439	-395.2369384765626	95.48851013183595	-606.9280395507814	-334.2616271972657	91.88344573974611	-682.4763183593751	-448.921844482422	51.18802642822267	-680.8683471679689	-231.5334625244141	50.10446166992189	-612.2576293945314	-248.2525939941407	55.88290786743165	-567.1896972656251	-311.3212890625001	36.89159393310548	-536.9431762695314	
805	4.02	141.7761688232422	1284.774658203125	-878.644226074219	-15.06355094909668	1236.03857421875	-962.2281494140627	-42.24511718750001	1230.19482421875	-824.2709960937502	-87.37464141845705	1149.499267578125	-884.3190917968752	-352.5809936523438	946.0449829101565	-913.1514892578127	-19.15228271484375	1003.611328125	-893.7318115234377	-5.075931549072267	1087.304565429688	-1041.254638671875	-140.265853881836	1075.119506835938	-1226.24658203125	-135.2374877929688	1026.54736328125	-1240.306884765625	-177.5900421142578	1046.084350585938	-1278.326782226563	-218.4065856933594	996.7607421875002	-1305.754638671875	-288.9425354003907	1034.45361328125	-1264.602905273438	-356.9417419433594	830.4726562500002	-1149.41845703125	-334.9310607910157	770.5571899414065	-1194.160766601563	-312.3908386230469	809.5346679687502	-1101.472900390625	-13.69171237945557	1063.473022460938	-731.5667114257814	-183.1947479248047	1045.521362304688	-570.3668212890626	-195.5758666992188	998.6405029296877	-562.4710083007814	-240.991195678711	1027.05517578125	-533.3275756835939	-286.2535705566407	1001.248474121094	-520.5731811523439	-334.4405212402344	1047.748657226563	-578.0101318359376	-431.0653686523439	844.9229125976565	-698.5566406250001	-371.0263061523438	820.6788330078127	-722.3759155273439	-418.4960327148439	790.6411132812502	-643.0018920898439	-317.6213378906251	720.2836914062501	-1037.559204101563	-330.5678405761719	736.1033325195314	-773.2171020507815	-427.4152832031251	886.760681152344	-913.2864990234377	-452.1509094238282	866.6398925781252	-942.5948486328127	-455.9981079101564	865.8068847656252	-885.085632324219	-353.3888244628907	615.8500366210939	-1165.907470703125	-274.6994934082032	585.6735839843751	-1182.147827148438	-242.5494689941407	616.9720458984376	-1168.003540039063	-257.5064086914063	528.8771972656251	-1189.62109375	-160.8243408203125	432.8540649414064	-1199.160400390625	-112.129150390625	407.6136169433595	-1074.287719726563	-182.8297119140625	273.5950622558594	-1178.755981445313	-260.5682678222657	269.6113891601563	-1220.56005859375	-222.1592254638672	246.3612670898438	-1209.318969726563	-265.8218994140626	176.8537139892578	-1177.119018554688	-397.3843994140626	94.12833404541017	-1209.078979492188	-340.6484375000001	91.13719177246095	-1125.780151367188	-457.9524536132814	55.62034606933595	-1140.07373046875	-241.2404327392579	51.03186798095705	-1191.710571289063	-249.9319763183594	56.87058258056642	-1240.568359375	-315.2218322753907	39.51272201538087	-1276.90478515625	-326.2032165527344	572.7558593750001	-645.8160400390626	-260.7666320800782	564.6016235351564	-631.8320312500001	-236.5702056884766	585.9961547851564	-635.1589355468751	-223.3189849853516	488.7076110839845	-622.7245483398439	-184.9906311035157	435.903778076172	-608.9790039062501	-116.9944839477539	426.1484985351564	-729.9463500976564	-172.9019317626953	327.7112121582032	-596.9994506835939	-279.8404541015626	300.7723693847657	-589.1629638671876	-242.3157196044922	274.1455383300782	-587.4846191406251	-249.1520996093751	221.4609985351563	-609.4365234375001	-395.0165100097657	95.89112854003908	-606.7242431640626	-334.1590270996094	92.09382629394533	-682.3259277343751	-448.8825683593751	51.51290130615236	-680.7263183593751	-231.4727020263672	50.06787872314455	-612.1923217773439	-248.1623992919922	55.81439590454103	-567.1080932617189	-311.3167419433594	36.91511535644532	-536.9274291992189	
